<svg id="Capa_1" enable-background="new 0 0 497 497" height="512" viewBox="0 0 497 497" width="512" xmlns="http://www.w3.org/2000/svg"><g><path d="m357.287 137.528-108.524 7.028-109.048-7.028c-20.423 0-35.28-19.625-29.468-39.203 13.378-45.064 49.227-80.461 94.564-93.201 11.86-3.34 24.372-5.124 37.296-5.124h12.786c13.118 0 25.813 1.841 37.822 5.261 22.782 6.507 43.14 18.733 59.426 35.02 15.977 15.977 28.042 35.867 34.633 58.111 5.793 19.554-9.093 39.136-29.487 39.136z" fill="#08a9f1"/><path d="m386.773 98.392c-6.591-22.244-18.656-42.134-34.633-58.111-16.286-16.286-36.644-28.512-59.426-35.02-12.008-3.42-24.703-5.261-37.821-5.261h-12.786c-2.661 0-5.3.094-7.924.244 10.32.585 20.341 2.29 29.921 5.017 22.782 6.508 43.14 18.733 59.426 35.02 15.977 15.977 28.042 35.867 34.633 58.111 5.793 19.554-9.093 39.136-29.487 39.136h28.611c20.394 0 35.28-19.582 29.486-39.136z" fill="#0290cf"/><path d="m335.52 111.086h-164.966c-8.669 0-15.696-7.027-15.696-15.696 0-8.669 7.027-15.696 15.696-15.696h164.966c8.669 0 15.696 7.027 15.696 15.696 0 8.669-7.027 15.696-15.696 15.696z" fill="#e0edf1"/><path d="m335.52 79.694h-24.788c8.669 0 15.696 7.027 15.696 15.696 0 8.669-7.027 15.696-15.696 15.696h24.788c8.668 0 15.696-7.027 15.696-15.696 0-8.668-7.027-15.696-15.696-15.696z" fill="#a8d3d8"/><g><path d="m292.715 5.261v36.899c0 6.126-4.966 11.092-11.092 11.092h-65.719c-6.126 0-11.092-4.966-11.092-11.092v-37.036c11.859-3.34 24.371-5.124 37.295-5.124h12.786c13.118 0 25.813 1.841 37.822 5.261z" fill="#62dbfb"/><path d="m254.893 0h-12.786c-1.452 0-2.897.03-4.338.075 11.605.354 22.853 2.139 33.554 5.186v36.648c0 6.265-5.079 11.343-11.343 11.343h21.643c6.126 0 11.092-4.966 11.092-11.092v-36.899c-12.009-3.42-24.704-5.261-37.822-5.261z" fill="#01d0fb"/></g><circle cx="199.115" cy="95.39" fill="#a2e62e" r="15.696"/><path d="m107.923 497c-1.898 0-3.356-1.639-3.192-3.53 1.788-20.632 19.102-36.82 40.198-36.82l103.834-7.145 103.308 7.145c21.095 0 38.41 16.188 40.198 36.82.164 1.891-1.294 3.53-3.192 3.53z" fill="#a8d3d8"/><path d="m352.071 456.65h-19.298c20.903 0 38.094 15.895 40.145 36.257.049.484.659 4.093-3.14 4.093h19.298c1.898 0 3.356-1.639 3.192-3.53-1.787-20.631-19.101-36.82-40.197-36.82z" fill="#8ebac5"/><path d="m457.165 207.363v123.34c0 34.497-27.966 62.463-62.463 62.463h-2.281l-7.611-106.643 7.611-106.643h37.272c15.166 0 27.472 12.306 27.472 27.483z" fill="#08a9f1"/><path d="m429.694 179.88h-18.509c15.165 0 27.471 12.306 27.471 27.483v123.34c0 28.883-19.608 53.175-46.235 60.321v2.142h2.281c34.498 0 62.463-27.966 62.463-62.463v-123.34c0-15.177-12.306-27.483-27.471-27.483z" fill="#0290cf"/><path d="m457.165 207.363v49.441h-64.744v-76.924h37.272c15.166 0 27.472 12.306 27.472 27.483z" fill="#62dbfb"/><path d="m429.694 179.88h-18.509c15.165 0 27.471 12.306 27.471 27.483v49.441h18.509v-49.441c0-15.177-12.306-27.483-27.471-27.483z" fill="#01d0fb"/><path d="m39.835 207.363v123.34c0 34.497 27.966 62.463 62.463 62.463h2.281l8.742-109.89-8.742-103.396h-37.273c-15.165 0-27.471 12.306-27.471 27.483z" fill="#08a9f1"/><path d="m67.306 179.88h-.002 17.976v210.92c5.412 1.53 11.116 2.366 17.018 2.366h2.281v-213.286z" fill="#0290cf"/><path d="m39.835 207.363v49.441h64.744v-76.924h-37.273c-15.165 0-27.471 12.306-27.471 27.483z" fill="#62dbfb"/><path d="m85.28 179.88h19.298v76.924h-19.298z" fill="#01d0fb"/><path d="m392.42 177.46v234.98c0 24.41-19.8 44.21-44.2 44.21h-199.44c-24.4 0-44.2-19.8-44.2-44.21v-234.98c0-22.06 17.88-39.93 39.93-39.93h207.98c22.05 0 39.93 17.87 39.93 39.93z" fill="#08a9f1"/><g><path d="m239.01 137.53v51.93c0 4.15-3.36 7.5-7.5 7.5-4.15 0-7.5-3.35-7.5-7.5v-51.93z" fill="#0290cf"/></g><g><path d="m269.88 377.2v30.19c0 4.14-3.35 7.5-7.5 7.5h-18.94v41.76h-15v-49.26c0-4.14 3.36-7.5 7.5-7.5h18.94v-22.69c0-4.14 3.36-7.5 7.5-7.5 4.15 0 7.5 3.36 7.5 7.5z" fill="#0290cf"/></g><path d="m352.492 137.528h-21.789c22.052 0 39.929 17.877 39.929 39.929v234.978c0 24.418-19.797 44.215-44.204 44.215h21.789c24.406 0 44.203-19.797 44.203-44.215v-234.978c.001-22.052-17.876-39.929-39.928-39.929z" fill="#0290cf"/><path d="m316.97 249.32v102.34c0 14.04-11.38 25.43-25.42 25.43h-86.1c-14.04 0-25.42-11.39-25.42-25.43v-102.33c0-33.06 26.8-59.87 59.87-59.87h17.2c33.07 0 59.86 26.8 59.87 59.86z" fill="#e0edf1"/><path d="m316.97 249.32v102.34c0 14.04-11.38 25.43-25.42 25.43h-20.27c14.04 0 25.42-11.39 25.42-25.43v-102.34c-.01-32.55-25.98-59-58.34-59.82.52-.01 1.02-.04 1.54-.04h17.2c33.07 0 59.86 26.8 59.87 59.86z" fill="#a8d3d8"/><g><path d="m316.97 249.32v15h-74.77l-19.44 19.45c-1.41 1.4-3.32 2.19-5.31 2.19h-37.02c-.13 0-.27 0-.4-.02v-14.96c.13-.02.27-.02.4-.02h33.92l19.44-19.44c1.41-1.41 3.32-2.2 5.31-2.2z" fill="#a8d3d8"/></g><g><g><path d="m296.7 249.32h20.27v15h-20.27z" fill="#8ebac5"/></g></g><g><path d="m357.281 175.996h-34.501c-4.143 0-7.5-3.358-7.5-7.5s3.357-7.5 7.5-7.5h34.501c4.143 0 7.5 3.358 7.5 7.5s-3.357 7.5-7.5 7.5z" fill="#62dbfb"/></g><g><g><circle cx="293.715" cy="168.496" fill="#a2e62e" r="8.017"/></g></g></g></svg>